<?xml version="1.0" encoding="UTF-8"?>
<svg id="Capa_2" data-name="Capa 2" xmlns="http://www.w3.org/2000/svg" viewBox="0 0 44 43.88">
  <defs>
    <style>
      .cls-1 {
        fill: #444;
      }

      .cls-2 {
        fill: #cde05d;
      }
    </style>
  </defs>
  <g id="Capa_1-2" data-name="Capa 1">
    <g>
      <path class="cls-2" d="M22.01,0C9.86,0,0,9.83,0,22.02s9.86,21.87,22.01,21.87,21.99-9.71,21.99-21.87S34.17,0,22.01,0ZM19.54,25c0,3.97-2.03,5.88-5.85,5.88-2.06,0-3.97-.84-5.2-2.33l2.06-2.45c.96,1.22,1.91,1.76,2.99,1.76,1.52,0,2.33-.96,2.33-2.72v-7.53h-5.74v-3.02h9.41v10.4ZM35.55,30.62h-12.46V14.61h12.19v3.02h-8.33v3.41h7.38v2.9h-7.38v3.67h8.6v3.02Z"/>
      <polygon class="cls-1" points="35.55 27.6 35.55 30.62 23.09 30.62 23.09 14.61 35.28 14.61 35.28 17.62 26.94 17.62 26.94 21.03 34.32 21.03 34.32 23.93 26.94 23.93 26.94 27.6 35.55 27.6"/>
      <path class="cls-1" d="M19.54,14.61v10.4c0,3.97-2.03,5.88-5.85,5.88-2.06,0-3.97-.84-5.2-2.33l2.06-2.45c.96,1.22,1.91,1.76,2.99,1.76,1.52,0,2.33-.96,2.33-2.72v-7.53h-5.74v-3.02h9.41Z"/>
    </g>
  </g>
</svg>