<svg width="24" height="24" viewBox="0 0 24 24" fill="none" xmlns="http://www.w3.org/2000/svg">
<g clip-path="url(#clip0_439_16128)">
<path d="M23.2642 7.85437H0.735748C2.42362 3.27 6.82987 0 12 0C17.1701 0 21.5764 3.27 23.2642 7.85437ZM12 24C17.1701 24 21.5764 20.73 23.2642 16.1456H0.735748C2.42362 20.73 6.82987 24 12 24Z" fill="#71A9D3"/>
<path d="M0 12.0001C0 13.4574 0.26025 14.8535 0.73575 16.1457H23.2642C23.7397 14.8535 24 13.4574 24 12.0001C24 10.5429 23.7397 9.14674 23.2642 7.85449H0.73575C0.26025 9.14674 0 10.5429 0 12.0001ZM8.60925 11.9577L10.6219 11.8809C10.6226 11.87 10.6237 11.8587 10.6249 11.8479C10.3245 11.7421 10.1171 11.8434 9.729 11.6461C9.27075 11.4132 9.13988 11.5475 8.91525 11.492C8.688 11.4301 8.60625 11.2887 8.64825 11.2524C8.69025 11.216 8.73375 11.3577 8.90438 11.3746C9.07875 11.3821 9.3825 11.2602 9.75788 11.459C10.0612 11.6154 10.3489 11.5336 10.674 11.6037C10.6763 11.5966 10.6781 11.5895 10.6804 11.5827L8.84812 10.7409C8.84812 10.7409 8.79187 10.7199 8.80575 10.6775C8.82337 10.6389 8.883 10.6632 8.883 10.6632L10.7719 11.3622C10.7771 11.3525 10.782 11.3427 10.7873 11.333C10.5503 11.1204 10.32 11.135 10.0369 10.8039C9.70275 10.4135 9.53025 10.4874 9.34387 10.3501C9.1575 10.2057 9.1365 10.0441 9.189 10.0265C9.24187 10.0089 9.22762 10.1566 9.37912 10.2376C9.53737 10.3115 9.86438 10.3149 10.1355 10.6422C10.356 10.9029 10.653 10.9374 10.9268 11.1267C10.9313 11.1211 10.9361 11.1155 10.941 11.1099L9.57 9.63049C9.57 9.63049 9.52612 9.58962 9.55538 9.55587C9.5865 9.52699 9.63225 9.57237 9.63225 9.57237L11.1097 10.9411C11.1184 10.934 11.1266 10.9272 11.1353 10.9201C10.9976 10.6329 10.7794 10.5579 10.6444 10.1439C10.485 9.65524 10.2975 9.65749 10.1779 9.45949C10.0609 9.25474 10.1033 9.09724 10.1588 9.10137C10.2142 9.10549 10.1445 9.23637 10.2536 9.36912C10.3717 9.49812 10.6725 9.62637 10.7974 10.0321C10.9012 10.3569 11.1626 10.5027 11.3426 10.7825C11.349 10.7791 11.3558 10.7757 11.3621 10.7724L10.6616 8.88087C10.6616 8.88087 10.6369 8.82612 10.6766 8.80624C10.7164 8.79124 10.7411 8.85087 10.7411 8.85087L11.5822 10.6805C11.5927 10.6771 11.6036 10.6741 11.6141 10.6711C11.5969 10.3531 11.424 10.2005 11.4578 9.76624C11.4975 9.25399 11.3235 9.18424 11.2886 8.95549C11.2586 8.72187 11.3584 8.59249 11.4079 8.61724C11.4577 8.64199 11.3434 8.73649 11.3929 8.90074C11.4525 9.06499 11.6813 9.29862 11.6415 9.72162C11.613 10.0614 11.7986 10.2961 11.8582 10.6235C11.8654 10.6227 11.8729 10.6224 11.8804 10.622L11.9572 8.60637C11.9572 8.60637 11.9554 8.54637 11.9996 8.54299C12.042 8.54449 12.0424 8.60899 12.0424 8.60899L12.1193 10.6216C12.1301 10.6224 12.1414 10.6235 12.1522 10.6246C12.258 10.3242 12.1567 10.1169 12.354 9.72874C12.5869 9.27049 12.4526 9.13962 12.5081 8.91499C12.57 8.68774 12.7114 8.60599 12.7477 8.64799C12.7841 8.68999 12.6424 8.73349 12.6255 8.90412C12.618 9.07849 12.7399 9.38224 12.5411 9.75762C12.3848 10.061 12.4665 10.3486 12.3964 10.6737C12.4035 10.676 12.4106 10.6779 12.4174 10.6801L13.2593 8.84787C13.2593 8.84787 13.2803 8.79162 13.3226 8.80549C13.3612 8.82312 13.3369 8.88274 13.3369 8.88274L12.6375 10.7724C12.6473 10.7776 12.657 10.7825 12.6667 10.7877C12.8794 10.5507 12.8647 10.3205 13.1959 10.0374C13.5862 9.70324 13.5124 9.53074 13.6496 9.34437C13.794 9.15799 13.9556 9.13699 13.9733 9.18949C13.9909 9.24237 13.8431 9.22812 13.7621 9.37962C13.6883 9.53787 13.6849 9.86487 13.3575 10.136C13.0969 10.3565 13.0624 10.6535 12.873 10.9272C12.8786 10.9317 12.8843 10.9366 12.8899 10.9415L14.3693 9.57049C14.3693 9.57049 14.4101 9.52662 14.4439 9.55587C14.4727 9.58699 14.4274 9.63274 14.4274 9.63274L13.0586 11.1102C13.0658 11.1185 13.0725 11.1271 13.0796 11.1357C13.3669 10.9981 13.4419 10.7799 13.8559 10.6449C14.3445 10.4855 14.3422 10.298 14.5402 10.1784C14.745 10.0614 14.9025 10.1037 14.8984 10.1592C14.8942 10.2147 14.7634 10.1454 14.6306 10.2541C14.5016 10.3722 14.3734 10.673 13.9676 10.7979C13.6429 10.9017 13.497 11.1631 13.2172 11.3431C13.2206 11.3495 13.224 11.3562 13.2274 11.3626L15.1189 10.6621C15.1189 10.6621 15.1736 10.6374 15.1935 10.6771C15.2085 10.7169 15.1489 10.7416 15.1489 10.7416L13.3193 11.5827C13.3226 11.5932 13.3256 11.6041 13.3286 11.6146C13.6466 11.5974 13.7993 11.4245 14.2335 11.4582C14.7458 11.498 14.8155 11.324 15.0443 11.2891C15.2779 11.2591 15.4073 11.3589 15.3825 11.4084C15.3577 11.4582 15.2633 11.3439 15.099 11.3934C14.9347 11.453 14.7011 11.6817 14.2781 11.642C13.9384 11.6135 13.7036 11.7991 13.3762 11.8587C13.377 11.8659 13.3774 11.8734 13.3778 11.8809L15.3934 11.9577C15.3934 11.9577 15.4534 11.9559 15.4567 12.0001C15.4552 12.0425 15.3907 12.0429 15.3907 12.0429L13.3781 12.1197C13.3774 12.1306 13.3763 12.1419 13.3751 12.1527C13.6755 12.2585 13.8829 12.1572 14.271 12.3545C14.7292 12.5874 14.8601 12.4531 15.0848 12.5086C15.312 12.5705 15.3938 12.7119 15.3517 12.7482C15.3097 12.7846 15.2663 12.6429 15.0956 12.626C14.9213 12.6185 14.6175 12.7404 14.2421 12.5416C13.9388 12.3852 13.6511 12.467 13.326 12.3969C13.3237 12.404 13.3219 12.4111 13.3196 12.4179L15.1519 13.2597C15.1519 13.2597 15.2081 13.2807 15.1943 13.3231C15.1766 13.3617 15.117 13.3374 15.117 13.3374L13.2277 12.6376C13.2225 12.6474 13.2176 12.6571 13.2124 12.6669C13.4494 12.8795 13.6796 12.8652 13.9628 13.196C14.2969 13.5864 14.4694 13.5125 14.6558 13.6497C14.8421 13.7941 14.8631 13.9557 14.8106 13.9734C14.7577 13.991 14.772 13.8432 14.6205 13.7622C14.4622 13.6884 14.1353 13.685 13.8641 13.3576C13.6436 13.097 13.3466 13.0625 13.0729 12.8731C13.0684 12.8787 13.0635 12.8844 13.0586 12.89L14.4296 14.3694C14.4296 14.3694 14.4735 14.4102 14.4443 14.444C14.4131 14.4729 14.3674 14.4275 14.3674 14.4275L12.8899 13.0587C12.8813 13.0659 12.873 13.0726 12.8644 13.0797C13.002 13.367 13.2202 13.442 13.3552 13.856C13.5146 14.3446 13.7021 14.3424 13.8218 14.5404C13.9388 14.7451 13.8964 14.9026 13.8409 14.8985C13.7854 14.8944 13.8551 14.7635 13.746 14.6307C13.6279 14.5017 13.3271 14.3735 13.2023 13.9677C13.0984 13.643 12.837 13.4971 12.657 13.2174C12.6506 13.2207 12.6439 13.2241 12.6375 13.2275L13.338 15.119C13.338 15.119 13.3628 15.1737 13.323 15.1936C13.2832 15.2086 13.2585 15.149 13.2585 15.149L12.4174 13.3194C12.4069 13.3227 12.396 13.3257 12.3855 13.3287C12.4028 13.6467 12.5756 13.7994 12.5419 14.2336C12.5021 14.7459 12.6761 14.8156 12.711 15.0444C12.741 15.278 12.6412 15.4074 12.5917 15.3826C12.5419 15.3579 12.6562 15.2634 12.6068 15.0991C12.5471 14.9349 12.3184 14.7012 12.3581 14.2782C12.3866 13.9385 12.201 13.7037 12.1414 13.3764C12.1342 13.3771 12.1267 13.3775 12.1193 13.3779L12.0424 15.3935C12.0424 15.3935 12.0442 15.4535 12 15.4569C11.9576 15.4554 11.9572 15.3909 11.9572 15.3909L11.8804 13.3782C11.8695 13.3771 11.8583 13.3764 11.8474 13.3752C11.7416 13.6756 11.8429 13.883 11.6456 14.2711C11.4128 14.7294 11.547 14.8602 11.4915 15.0849C11.4296 15.3121 11.2882 15.3939 11.2519 15.3519C11.2155 15.3099 11.3573 15.2664 11.3741 15.0957C11.3816 14.9214 11.2598 14.6176 11.4585 14.2422C11.6149 13.9389 11.5331 13.6512 11.6032 13.3261C11.5961 13.3239 11.589 13.322 11.5822 13.3197L10.7404 15.152C10.7404 15.152 10.7194 15.2082 10.677 15.1944C10.6384 15.1767 10.6628 15.1171 10.6628 15.1171L11.3617 13.2282C11.352 13.223 11.3422 13.2181 11.3325 13.2129C11.1199 13.4499 11.1345 13.6801 10.8034 13.9632C10.413 14.2974 10.4869 14.4699 10.3496 14.6562C10.2053 14.8426 10.0436 14.8636 10.026 14.8111C10.0084 14.7582 10.1561 14.7725 10.2371 14.621C10.311 14.4627 10.3144 14.1357 10.6418 13.8646C10.9024 13.6441 10.9369 13.3471 11.1263 13.0734C11.1206 13.0689 11.115 13.064 11.1094 13.0591L9.63 14.4301C9.63 14.4301 9.58913 14.474 9.55538 14.4447C9.5265 14.4136 9.57187 14.3679 9.57187 14.3679L10.9406 12.8904C10.9335 12.8817 10.9268 12.8735 10.9196 12.8649C10.6324 13.0025 10.5574 13.2207 10.1434 13.3557C9.65475 13.5151 9.657 13.7026 9.459 13.8222C9.25425 13.9392 9.09675 13.8969 9.10087 13.8414C9.105 13.7859 9.23588 13.8556 9.36862 13.7465C9.49763 13.6284 9.62587 13.3276 10.0316 13.2027C10.3564 13.0989 10.5023 12.8375 10.782 12.6575C10.7786 12.6511 10.7753 12.6444 10.7719 12.638L8.88037 13.3385C8.88037 13.3385 8.82563 13.3632 8.80575 13.3235C8.79075 13.2837 8.85038 13.259 8.85038 13.259L10.68 12.4179C10.6766 12.4074 10.6736 12.3965 10.6706 12.386C10.3526 12.4032 10.2 12.5761 9.76575 12.5424C9.2535 12.5026 9.18375 12.6766 8.955 12.7115C8.72137 12.7415 8.592 12.6417 8.61675 12.5922C8.6415 12.5424 8.736 12.6567 8.90025 12.6072C9.0645 12.5476 9.29813 12.3189 9.72112 12.3586C10.0609 12.3871 10.2956 12.2015 10.623 12.1419C10.6222 12.1347 10.6219 12.1272 10.6215 12.1197L8.60588 12.0429C8.60588 12.0429 8.54588 12.0447 8.5425 12.0005C8.54438 11.9581 8.60925 11.9577 8.60925 11.9577Z" fill="white"/>
<path d="M15.3937 11.9575L13.3781 11.8806C13.3774 11.8735 13.3774 11.866 13.3766 11.8585C13.704 11.7988 13.9387 11.6132 14.2785 11.6417C14.7015 11.6815 14.9351 11.4527 15.0994 11.3931C15.2636 11.3432 15.3581 11.4576 15.3829 11.4081C15.4076 11.3582 15.2782 11.2588 15.0446 11.2888C14.8159 11.3237 14.7461 11.4977 14.2339 11.458C13.7996 11.4242 13.647 11.5971 13.329 11.6143C13.326 11.6038 13.323 11.593 13.3196 11.5825L15.1492 10.7413C15.1492 10.7413 15.2089 10.7166 15.1939 10.6768C15.174 10.6371 15.1192 10.6618 15.1192 10.6618L13.2277 11.3623C13.2244 11.356 13.2214 11.3492 13.2176 11.3428C13.4974 11.1625 13.6429 10.9015 13.968 10.7976C14.3737 10.6727 14.5024 10.3716 14.631 10.2538C14.7637 10.1451 14.8946 10.2145 14.8987 10.159C14.9029 10.1035 14.745 10.0611 14.5406 10.1781C14.3426 10.2977 14.3449 10.4852 13.8562 10.6446C13.4419 10.7796 13.3672 10.9978 13.08 11.1355C13.0732 11.1268 13.0661 11.1182 13.059 11.11L14.4277 9.63246C14.4277 9.63246 14.4735 9.58671 14.4442 9.55558C14.4105 9.52633 14.3696 9.57021 14.3696 9.57021L12.8902 10.9412C12.8846 10.9363 12.879 10.9318 12.8734 10.927C13.0627 10.6532 13.0976 10.3562 13.3579 10.1357C13.6849 9.86496 13.6886 9.53758 13.7625 9.37933C13.8435 9.22821 13.9912 9.24208 13.9736 9.18921C13.956 9.13633 13.7944 9.15771 13.65 9.34408C13.5127 9.53046 13.5866 9.70296 13.1962 10.0371C12.8655 10.3202 12.8797 10.5505 12.6671 10.7875C12.6574 10.7822 12.6476 10.777 12.6379 10.7721L13.3369 8.88321C13.3369 8.88321 13.3616 8.82358 13.3226 8.80596C13.2802 8.79171 13.2592 8.84833 13.2592 8.84833L12.4174 10.6806C12.4102 10.6783 12.4031 10.6765 12.3964 10.6742C12.4669 10.3491 12.3851 10.0611 12.5411 9.75808C12.7399 9.38271 12.6176 9.07896 12.6255 8.90458C12.6424 8.73396 12.7841 8.69046 12.7477 8.64846C12.7114 8.60646 12.57 8.68783 12.5081 8.91546C12.4526 9.14008 12.5869 9.27133 12.354 9.72921C12.1567 10.1177 12.258 10.3247 12.1522 10.6251C12.1414 10.624 12.1301 10.6228 12.1192 10.6221L12.0424 8.60946C12.0424 8.60946 12.0424 8.54496 11.9996 8.54346C11.9554 8.54646 11.9572 8.60683 11.9572 8.60683L11.8804 10.6225C11.8732 10.6232 11.8657 10.6232 11.8582 10.624C11.7986 10.2966 11.613 10.0618 11.6415 9.72208C11.6812 9.29908 11.4525 9.06546 11.3929 8.90121C11.343 8.73696 11.4574 8.64246 11.4079 8.61771C11.358 8.59296 11.2586 8.72233 11.2886 8.95596C11.3235 9.18471 11.4975 9.25446 11.4577 9.76671C11.424 10.201 11.5969 10.3536 11.6141 10.6716C11.6036 10.6746 11.5927 10.6776 11.5822 10.681L10.7411 8.85133C10.7411 8.85133 10.7164 8.79171 10.6766 8.80671C10.6369 8.82658 10.6616 8.88133 10.6616 8.88133L11.3621 10.7728C11.3557 10.7762 11.349 10.7792 11.3426 10.783C11.1622 10.5032 10.9012 10.3577 10.7974 10.0326C10.6725 9.62683 10.3714 9.49821 10.2536 9.36958C10.1449 9.23683 10.2142 9.10596 10.1587 9.10183C10.1032 9.09771 10.0609 9.25558 10.1779 9.45996C10.2975 9.65796 10.485 9.65571 10.6444 10.1443C10.7794 10.5587 10.9976 10.6333 11.1352 10.9206C11.1266 10.9273 11.118 10.9345 11.1097 10.9416L9.63224 9.57283C9.63224 9.57283 9.58649 9.52708 9.55537 9.55633C9.52612 9.59008 9.56999 9.63096 9.56999 9.63096L10.941 11.1103C10.9361 11.116 10.9316 11.1216 10.9267 11.1272C10.653 10.9378 10.356 10.903 10.1355 10.6427C9.86474 10.3157 9.53737 10.312 9.37912 10.2381C9.22799 10.1571 9.24187 10.0093 9.18899 10.027C9.13612 10.0446 9.15749 10.2062 9.34387 10.3506C9.53024 10.4878 9.70274 10.414 10.0369 10.8043C10.32 11.1351 10.5502 11.1208 10.7872 11.3335C10.782 11.3432 10.7767 11.353 10.7719 11.3627L8.88299 10.6637C8.88299 10.6637 8.82337 10.639 8.80574 10.678C8.79149 10.7203 8.84812 10.7413 8.84812 10.7413L10.6804 11.5832C10.6781 11.5903 10.6762 11.5975 10.674 11.6042C10.3489 11.5337 10.0609 11.6155 9.75787 11.4595C9.38249 11.2607 9.07874 11.383 8.90437 11.3751C8.73374 11.3582 8.69024 11.2165 8.64824 11.2528C8.60624 11.2892 8.68762 11.4306 8.91524 11.4925C9.13987 11.548 9.27112 11.4137 9.72899 11.6466C10.1175 11.8438 10.3245 11.7426 10.6249 11.8483C10.6237 11.8592 10.6226 11.8705 10.6219 11.8813L8.60924 11.9582C8.60924 11.9582 8.54474 11.9582 8.54324 12.001C8.54624 12.0452 8.60662 12.0433 8.60662 12.0433L10.6222 12.1202C10.623 12.1273 10.623 12.1348 10.6237 12.1423C10.2964 12.202 10.0616 12.3876 9.72187 12.3591C9.29887 12.3193 9.06524 12.5481 8.90099 12.6077C8.73674 12.6576 8.64224 12.5432 8.61749 12.5927C8.59274 12.6426 8.72212 12.742 8.95574 12.712C9.18449 12.6771 9.25424 12.5031 9.76649 12.5428C10.2007 12.5766 10.3534 12.4037 10.6714 12.3865C10.6744 12.397 10.6774 12.4078 10.6807 12.4183L8.85112 13.2595C8.85112 13.2595 8.79149 13.2842 8.80649 13.324C8.82637 13.3637 8.88112 13.339 8.88112 13.339L10.7726 12.6385C10.776 12.6448 10.779 12.6516 10.7827 12.658C10.503 12.8383 10.3575 13.0993 10.0324 13.2032C9.62662 13.3281 9.49799 13.6292 9.36937 13.747C9.23662 13.8557 9.10574 13.7863 9.10162 13.8418C9.09749 13.8973 9.25537 13.9397 9.45974 13.8227C9.65774 13.7031 9.65549 13.5156 10.1441 13.3562C10.5585 13.2212 10.6331 13.003 10.9204 12.8653C10.9271 12.874 10.9342 12.8826 10.9414 12.8908L9.57262 14.3683C9.57262 14.3683 9.52687 14.4141 9.55612 14.4452C9.58987 14.4745 9.63074 14.4306 9.63074 14.4306L11.1101 13.0596C11.1157 13.0645 11.1214 13.069 11.127 13.0738C10.9376 13.3476 10.9027 13.6446 10.6425 13.8651C10.3155 14.1358 10.3117 14.4632 10.2379 14.6215C10.1569 14.7726 10.0091 14.7587 10.0267 14.8116C10.0444 14.8645 10.206 14.8431 10.3504 14.6567C10.4876 14.4703 10.4137 14.2978 10.8041 13.9637C11.1349 13.6806 11.1206 13.4503 11.3332 13.2133C11.343 13.2186 11.3527 13.2238 11.3625 13.2287L10.6635 15.1176C10.6635 15.1176 10.6387 15.1772 10.6777 15.1948C10.7201 15.2087 10.7411 15.1525 10.7411 15.1525L11.583 13.3202C11.5901 13.3225 11.5972 13.3243 11.604 13.3266C11.5335 13.6517 11.6152 13.9397 11.4592 14.2427C11.2605 14.6181 11.3827 14.9218 11.3749 15.0962C11.358 15.2668 11.2162 15.3103 11.2526 15.3523C11.289 15.3943 11.4304 15.313 11.4922 15.0853C11.5477 14.8607 11.4135 14.7295 11.6464 14.2716C11.8436 13.8831 11.7424 13.6761 11.8481 13.3757C11.859 13.3768 11.8702 13.378 11.8811 13.3787L11.958 15.3913C11.958 15.3913 11.958 15.4558 12.0007 15.4573C12.045 15.4543 12.0431 15.394 12.0431 15.394L12.12 13.3783C12.1271 13.3776 12.1346 13.3776 12.1421 13.3768C12.2017 13.7042 12.3874 13.939 12.3589 14.2787C12.3191 14.7017 12.5479 14.9353 12.6075 15.0996C12.6574 15.2638 12.543 15.3583 12.5925 15.3831C12.6424 15.4078 12.7417 15.2785 12.7117 15.0448C12.6769 14.8161 12.5029 14.7463 12.5426 14.2341C12.5764 13.7998 12.4035 13.6472 12.3862 13.3292C12.3967 13.3262 12.4076 13.3232 12.4181 13.3198L13.2592 15.1495C13.2592 15.1495 13.284 15.2091 13.3237 15.1941C13.3635 15.1742 13.3387 15.1195 13.3387 15.1195L12.6382 13.228C12.6446 13.2246 12.6514 13.2212 12.6577 13.2178C12.8381 13.4976 13.0991 13.6431 13.203 13.9682C13.3279 14.374 13.629 14.5026 13.7467 14.6312C13.8555 14.764 13.7861 14.8948 13.8416 14.899C13.8971 14.9031 13.9395 14.7452 13.8225 14.5408C13.7029 14.3428 13.5154 14.3451 13.356 13.8565C13.221 13.4421 13.0027 13.3675 12.8651 13.0802C12.8737 13.0735 12.8824 13.0663 12.8906 13.0592L14.3681 14.428C14.3681 14.428 14.4139 14.4737 14.445 14.4445C14.4742 14.4107 14.4304 14.3698 14.4304 14.3698L13.0594 12.8905C13.0642 12.8848 13.0687 12.8792 13.0736 12.8736C13.3474 13.063 13.6444 13.0978 13.8649 13.3581C14.1356 13.6851 14.463 13.6888 14.6212 13.7627C14.7724 13.8437 14.7585 13.9915 14.8114 13.9738C14.8642 13.9562 14.8429 13.7946 14.6565 13.6502C14.4701 13.513 14.2976 13.5868 13.9635 13.1965C13.6804 12.8657 13.4501 12.88 13.2131 12.6673C13.2184 12.6576 13.2236 12.6478 13.2285 12.6381L15.1174 13.3371C15.1174 13.3371 15.177 13.3618 15.1946 13.3228C15.2089 13.2805 15.1522 13.2595 15.1522 13.2595L13.32 12.4176C13.3222 12.4105 13.3241 12.4033 13.3264 12.3966C13.6515 12.4671 13.9395 12.3853 14.2425 12.5413C14.6179 12.7401 14.9216 12.6178 15.096 12.6257C15.2666 12.6426 15.3101 12.7843 15.3521 12.748C15.3941 12.7116 15.3127 12.5702 15.0851 12.5083C14.8605 12.4528 14.7292 12.5871 14.2714 12.3542C13.8829 12.157 13.6759 12.2582 13.3755 12.1525C13.3766 12.1416 13.3777 12.1303 13.3785 12.1195L15.3911 12.0426C15.3911 12.0426 15.4556 12.0426 15.4571 11.9998C15.4537 11.9556 15.3937 11.9575 15.3937 11.9575ZM11.1064 14.1531L11.4371 13.2643C11.4585 13.2737 11.4799 13.2827 11.5016 13.2913L11.1064 14.1531Z" fill="#F6B40E"/>
</g>
<rect x="0.5" y="0.5" width="23" height="23" rx="11.5" stroke="white"/>
<defs>
<clipPath id="clip0_439_16128">
<rect width="24" height="24" rx="12" fill="white"/>
</clipPath>
</defs>
</svg>