<svg width="24" height="24" viewBox="0 0 24 24" fill="none" xmlns="http://www.w3.org/2000/svg">
<g clip-path="url(#clip0_439_16129)">
<path d="M0.032625 11.159C0.0135 11.4373 0 11.7167 0 11.9998C0 12.3005 0.015 12.5979 0.03675 12.893L12.0615 20.6105L23.964 12.8848C23.9854 12.5923 24 12.2979 24 11.9998C24 11.7122 23.9861 11.4275 23.9662 11.1448L11.9824 3.38867L0.032625 11.159ZM18.7335 11.9998C18.7335 12.4505 18.687 12.8908 18.5985 13.3157C18.5996 13.3164 18.6004 13.3172 18.6015 13.3183C18.5869 13.3892 18.5662 13.4585 18.549 13.529C18.5389 13.5703 18.5291 13.6119 18.5182 13.6532C18.459 13.8797 18.3915 14.1039 18.3075 14.3225C18.3056 14.321 18.3041 14.3192 18.3022 14.3177C17.3689 16.7372 15.0187 18.455 12.2636 18.455C8.69588 18.4494 5.80837 15.5529 5.814 11.9852C5.81512 11.3409 5.9115 10.7195 6.08813 10.1327C6.08138 10.1334 6.07463 10.1338 6.0675 10.1342C6.17887 9.76855 6.32288 9.4138 6.49837 9.07442C6.50325 9.07405 6.50775 9.07405 6.51263 9.07367C7.581 6.97105 9.76425 5.53105 12.2839 5.53517C15.8497 5.54042 18.7365 8.4343 18.7335 11.9998Z" fill="#EAD11F"/>
<path d="M6.08813 10.1327C5.91188 10.7195 5.81513 11.3409 5.814 11.9852C5.80838 15.5529 8.69588 18.4494 12.2636 18.455C15.0191 18.455 17.3689 16.7372 18.3023 14.3177C16.002 12.1205 11.8028 9.59341 6.08813 10.1327ZM6.894 14.4137L6.75713 14.3375L6.68625 14.3717L6.62025 14.4035L6.64575 14.2768L6.651 14.2513L6.5445 14.1399L6.69675 14.1197L6.76763 13.9828L6.83363 14.1249L6.98588 14.1553L6.86925 14.2565L6.894 14.4137ZM6.9855 11.1534L6.78263 11.2547L6.83325 11.0214L6.666 10.8542L6.89925 10.8287L7.0005 10.6209L7.10175 10.8339L7.32488 10.8744L7.15763 11.0315L7.188 11.2648L6.9855 11.1534ZM12.0608 14.15L12.1721 14.1347L12.2228 14.0334L12.2734 14.1347L12.3848 14.1602L12.3038 14.2363L12.3191 14.3529L12.2179 14.297L12.1166 14.3477L12.1421 14.231L12.0608 14.15ZM12.492 17.1264L12.411 17.0807L12.3199 17.1264L12.3401 17.0252L12.2738 16.9539L12.3701 16.9438L12.4159 16.8575L12.4564 16.9487L12.5528 16.964L12.4819 17.03L12.492 17.1264ZM15.7725 17.0252L15.6506 16.9543L15.5288 17.0203L15.5591 16.8782L15.4628 16.7769L15.5996 16.7567L15.6604 16.6299L15.7163 16.7619L15.8531 16.7874L15.7519 16.8887L15.7725 17.0252ZM17.0198 15.0324L16.9084 14.9765L16.797 15.0272L16.8225 14.9105L16.7363 14.8295L16.8581 14.8142L16.9189 14.7129L16.9695 14.8142L17.0963 14.8397L16.9999 14.9158L17.0198 15.0324ZM17.6029 14.2209L17.6535 14.1197L17.7041 14.2262L17.8106 14.2464L17.7296 14.3274L17.745 14.4388L17.6438 14.3882L17.5425 14.4388L17.568 14.3222L17.487 14.2359L17.6029 14.2209ZM16.7359 14.2108L16.827 14.0334L16.908 14.216L17.1008 14.2517L16.9538 14.3837L16.9841 14.5813L16.8116 14.48L16.6343 14.5712L16.6748 14.3735L16.5379 14.2314L16.7359 14.2108ZM16.6598 15.2908L16.7306 15.1539L16.7966 15.296L16.9489 15.3264L16.8323 15.4277L16.8525 15.5848L16.7205 15.5087L16.5836 15.5795L16.614 15.4273L16.5075 15.3107L16.6598 15.2908ZM16.1325 15.4888L16.1884 15.3875L16.239 15.4888L16.3556 15.5143L16.2694 15.5953L16.2848 15.7172L16.1835 15.6564L16.077 15.707L16.0973 15.5904L16.0163 15.5042L16.1325 15.4888ZM15.6154 15.4835L15.6761 15.3669L15.7268 15.4888L15.8535 15.509L15.7571 15.6002L15.7774 15.7322L15.666 15.6613L15.5494 15.722L15.5749 15.59L15.4886 15.4989L15.6154 15.4835ZM15.5798 16.178L15.6458 16.0513L15.7065 16.1833L15.8588 16.2088L15.7421 16.3052L15.7624 16.4473L15.6356 16.3764L15.4988 16.4372L15.5291 16.295L15.4279 16.1938L15.5798 16.178ZM14.6468 15.4989L14.6974 15.3977L14.748 15.4989L14.8594 15.5192L14.7788 15.6002L14.7889 15.7168L14.6925 15.656L14.5913 15.7067L14.6115 15.5953L14.5354 15.509L14.6468 15.4989ZM14.388 16.5332L14.6111 16.5737L14.4386 16.7308L14.469 16.964L14.2714 16.8474L14.0685 16.9487L14.109 16.7207L13.9519 16.5534L14.1799 16.5279L14.2864 16.3202L14.388 16.5332ZM13.9219 11.711L13.998 11.5689L14.064 11.7212L14.2163 11.7467L14.1049 11.858L14.1251 12.0204L13.9875 11.9394L13.8405 12.0103L13.8709 11.8479L13.7595 11.7313L13.9219 11.711ZM13.734 15.4989L13.7846 15.3977L13.8353 15.4989L13.9418 15.5192L13.8608 15.6002L13.8761 15.7168L13.7749 15.656L13.6736 15.7067L13.6991 15.5953L13.6181 15.509L13.734 15.4989ZM12.9686 13.5414L13.0395 13.4045L13.1003 13.5467L13.2525 13.5722L13.1411 13.6787L13.1614 13.8358L13.0294 13.7548L12.8873 13.8257L12.9176 13.6734L12.8164 13.5568L12.9686 13.5414ZM12.6034 15.2098L12.4309 15.1085L12.2535 15.1997L12.294 15.002L12.1519 14.855L12.3548 14.8348L12.4459 14.6522L12.5269 14.8397L12.7245 14.8753L12.5723 15.0122L12.6034 15.2098ZM12.2333 12.8319L12.3398 12.6242L12.441 12.8372L12.6641 12.8777L12.4916 13.04L12.5273 13.268L12.3244 13.1567L12.1215 13.2579L12.162 13.0247L12.0049 12.8574L12.2333 12.8319ZM11.6756 13.5414L11.7465 13.3993L11.8073 13.5463L11.9595 13.5718L11.8481 13.6783L11.8684 13.8305L11.7315 13.7544L11.5946 13.8253L11.625 13.673L11.5238 13.5564L11.6756 13.5414ZM9.84488 12.1978L9.95625 11.9949L10.0526 12.2079L10.2758 12.2484L10.1085 12.4055L10.1389 12.6388L9.936 12.5222L9.73313 12.6234L9.77888 12.3954L9.6165 12.2282L9.84488 12.1978ZM9.84488 15.4277L9.95625 15.2248L10.0526 15.4378L10.2758 15.4783L10.1085 15.6305L10.1389 15.869L9.936 15.7524L9.73313 15.8537L9.77888 15.6257L9.6165 15.4532L9.84488 15.4277ZM8.82075 14.1197L8.89163 13.9828L8.95763 14.1249L9.10988 14.1504L8.99325 14.2569L9.0135 14.4092L8.8815 14.3383L8.74463 14.4043L8.775 14.252L8.6685 14.1407L8.82075 14.1197ZM8.628 14.6874L8.694 14.8295L8.84625 14.8599L8.72963 14.9612L8.74988 15.1183L8.61788 15.0422L8.481 15.113L8.51138 14.9608L8.40488 14.8442L8.55713 14.8239L8.628 14.6874ZM8.23763 13.1968L8.27813 13.1105L8.31863 13.2017L8.415 13.217L8.34413 13.283L8.3595 13.3843L8.27325 13.3337L8.187 13.3742L8.20725 13.2778L8.14125 13.2069L8.23763 13.1968ZM7.746 13.5009L7.96913 13.5414L7.80188 13.6985L7.83225 13.9318L7.62938 13.8152L7.4265 13.9164L7.47225 13.6884L7.30988 13.5212L7.53788 13.4908L7.64438 13.2879L7.746 13.5009ZM6.51263 9.07404C11.3415 8.75866 15.165 10.304 18.5985 13.316C18.6866 12.8912 18.7335 12.4513 18.7335 12.0002C18.7361 8.43466 15.8494 5.54079 12.2839 5.53516C9.76425 5.53141 7.581 6.97141 6.51263 9.07404ZM14.2309 9.89604L14.3273 9.71341L14.4135 9.90616L14.6164 9.94179L14.4641 10.0787L14.4945 10.2864L14.3119 10.1852L14.1293 10.2763L14.1698 10.0734L14.0276 9.92116L14.2309 9.89604Z" fill="#325DB2"/>
<path d="M23.9662 11.145L11.9824 3.38888L0.0326233 11.1593C0.464623 4.9245 5.65537 0 12 0C18.3397 0 23.5275 4.917 23.9662 11.145ZM0.0367483 12.8932C0.494248 19.1033 5.67337 24 12 24C18.3292 24 23.5102 19.0988 23.964 12.8854L12.0615 20.6111L0.0367483 12.8932ZM15.4631 12.0506L15.9195 12.3296L15.9802 12.2284L15.6405 12.0255L15.7417 11.8582L16.0459 12.0458L16.1119 11.9445L15.8077 11.757L15.8887 11.6201L16.2131 11.823L16.2739 11.7218L15.8276 11.4427L15.4575 12.0514H15.4631V12.0506ZM16.305 12.3094C16.2892 12.3443 16.2859 12.3836 16.2949 12.4208C16.308 12.4556 16.3331 12.4845 16.3657 12.5018C16.4062 12.5273 16.4366 12.5374 16.467 12.5321C16.4974 12.5321 16.5176 12.5168 16.533 12.4916C16.5405 12.4796 16.5442 12.4654 16.5431 12.4511C16.5431 12.4358 16.533 12.4155 16.5176 12.4005C16.4917 12.369 16.4647 12.3386 16.4366 12.3094C16.3807 12.2535 16.3455 12.2081 16.3354 12.1672C16.3185 12.1144 16.326 12.057 16.3556 12.0101C16.3747 11.979 16.4032 11.9542 16.4366 11.9392C16.4715 11.9231 16.5101 11.9179 16.548 11.9239C16.5949 11.9318 16.6399 11.949 16.68 11.9745C16.7561 12.0251 16.8019 12.0758 16.8169 12.1316C16.8356 12.1894 16.8281 12.2524 16.7966 12.3041L16.6699 12.2333C16.6852 12.1976 16.6901 12.1725 16.68 12.147C16.6699 12.1215 16.6496 12.0964 16.614 12.0761C16.5859 12.0559 16.5521 12.0454 16.5176 12.0458C16.5007 12.0469 16.4854 12.0562 16.4771 12.0712C16.467 12.0866 16.467 12.1016 16.4719 12.1219C16.4771 12.1421 16.5075 12.1826 16.5581 12.2333C16.6087 12.2839 16.6444 12.3244 16.6594 12.3551C16.701 12.42 16.701 12.5033 16.6594 12.5681C16.6376 12.6034 16.6057 12.6319 16.5682 12.6491C16.5304 12.6667 16.4876 12.672 16.4464 12.6645C16.3942 12.6555 16.3444 12.6368 16.2994 12.6086C16.2337 12.5738 16.1835 12.516 16.1572 12.4462C16.1377 12.3784 16.1449 12.306 16.1775 12.2434L16.305 12.3094ZM9.65737 10.0226L9.12 9.972L9.186 9.26213L9.70837 9.31275L9.69825 9.43463L9.318 9.399L9.30262 9.55125L9.65737 9.58687L9.642 9.70875L9.28725 9.67313L9.27187 9.86588L9.6675 9.9015L9.65737 10.0226ZM16.8829 12.6945C16.8656 12.729 16.86 12.7684 16.8675 12.8059C16.8795 12.8426 16.9046 12.8734 16.9384 12.8921C16.974 12.9176 17.0092 12.9326 17.0396 12.9277C17.07 12.9277 17.0902 12.9124 17.1056 12.8921C17.1146 12.8786 17.118 12.8625 17.1157 12.8464C17.1116 12.8276 17.103 12.8104 17.0902 12.7958C17.0801 12.7804 17.0546 12.7451 17.0141 12.7046C16.9725 12.6615 16.9414 12.6094 16.923 12.5524C16.8967 12.4631 16.9399 12.3682 17.0242 12.3292C17.061 12.3139 17.1019 12.3105 17.1409 12.3191C17.1885 12.33 17.2335 12.351 17.2729 12.3799C17.3437 12.4305 17.3895 12.4811 17.4049 12.5422C17.4191 12.6 17.4079 12.6607 17.3745 12.7095L17.2526 12.6334C17.268 12.603 17.2729 12.5726 17.2627 12.5471C17.2575 12.5216 17.2372 12.4965 17.202 12.4762C17.1761 12.4552 17.1442 12.4429 17.1109 12.4406C17.0921 12.4399 17.0745 12.4496 17.0651 12.4661C17.055 12.4815 17.055 12.4965 17.0602 12.5167C17.0651 12.537 17.0906 12.5775 17.1412 12.6281C17.1919 12.6788 17.2222 12.7245 17.2425 12.7549C17.2796 12.8228 17.2736 12.906 17.2271 12.9679C17.2035 13.0024 17.1697 13.029 17.1307 13.044C17.0929 13.0616 17.0501 13.0669 17.0089 13.0594C16.9631 13.0493 16.9177 13.029 16.8667 12.9934C16.7906 12.9427 16.7449 12.8869 16.7299 12.8261C16.7134 12.7571 16.7242 12.6844 16.7602 12.6232L16.7655 12.6285L16.8829 12.6945ZM9.96675 10.0781L9.83475 10.0579L9.936 9.348L10.149 9.38363L10.2049 9.8805L10.4025 9.42413L10.6155 9.4545L10.5142 10.1542L10.3774 10.134L10.4636 9.58125L10.2405 10.1137L10.1036 10.0935L10.0477 9.5205L9.96675 10.0781ZM14.1397 11.3055C14.1049 11.253 14.0872 11.1911 14.0891 11.1281C14.0917 11.0625 14.109 10.9984 14.1397 10.9406C14.1701 10.8795 14.2155 10.8274 14.2717 10.7884C14.3254 10.7512 14.3891 10.7318 14.4544 10.7325C14.505 10.7325 14.5556 10.7479 14.6167 10.7831C14.6977 10.8187 14.7487 10.8694 14.7739 10.9253C14.8001 10.9808 14.8057 11.0437 14.7892 11.1026L14.6524 11.0621C14.6606 11.028 14.6572 10.9924 14.6422 10.9609C14.6269 10.9305 14.6017 10.9103 14.5612 10.89C14.5132 10.8626 14.4562 10.857 14.4041 10.8746C14.3535 10.89 14.3077 10.9354 14.2721 11.0066C14.2365 11.0775 14.2215 11.1435 14.2365 11.1994C14.2507 11.253 14.2879 11.2976 14.3377 11.3212C14.3632 11.3366 14.3936 11.3468 14.424 11.3468C14.4544 11.3512 14.4851 11.3512 14.5151 11.3468L14.5556 11.2657L14.4086 11.1896L14.4645 11.0884L14.7382 11.2253L14.6115 11.4788C14.571 11.4889 14.5204 11.4941 14.4592 11.4889C14.4007 11.4825 14.3441 11.4653 14.292 11.4383C14.2305 11.4071 14.178 11.3618 14.1397 11.3055ZM7.10175 9.16575C7.05112 9.16575 7.0005 9.17587 6.9495 9.19125C6.91537 9.20512 6.88425 9.22575 6.85837 9.252C6.82912 9.27975 6.80512 9.31238 6.7875 9.34838C6.76725 9.399 6.75187 9.45487 6.75187 9.531C6.744 9.6285 6.77512 9.72487 6.83812 9.79988C6.90187 9.8655 6.99 9.90225 7.0815 9.90112C7.1745 9.90975 7.26637 9.87825 7.335 9.81487C7.401 9.74887 7.43625 9.65775 7.43625 9.546C7.44787 9.44588 7.41862 9.34538 7.35525 9.267C7.28962 9.20625 7.20825 9.16575 7.10175 9.16575ZM7.23375 9.72338C7.19737 9.76237 7.14525 9.783 7.09162 9.77925C7.03087 9.77925 6.98512 9.75375 6.9495 9.71325C6.91387 9.6675 6.89887 9.60675 6.89887 9.53063C6.90412 9.44963 6.91912 9.3885 6.95962 9.348C6.99562 9.30787 7.04775 9.28538 7.10175 9.28725C7.155 9.28763 7.20525 9.31162 7.23862 9.35325C7.27912 9.39375 7.28925 9.4545 7.28925 9.53588C7.28437 9.62213 7.26937 9.68288 7.23375 9.72338ZM7.73587 9.6015H7.76625C7.79025 9.6015 7.81425 9.60488 7.83712 9.61163C7.85475 9.61763 7.8705 9.62813 7.88287 9.642L7.95375 9.74325L8.055 9.90563H8.2275L8.14125 9.7635C8.11087 9.70762 8.08537 9.66712 8.06512 9.64688L7.989 9.58612C8.04037 9.582 8.08837 9.56025 8.12587 9.52537C8.15887 9.48938 8.17687 9.4425 8.1765 9.39338C8.1765 9.34762 8.16637 9.30713 8.14612 9.27675C8.12587 9.24638 8.10037 9.22087 8.06512 9.21075C8.0295 9.19538 7.97887 9.18525 7.90275 9.18525H7.59862L7.5885 9.89512H7.7355L7.73587 9.6015ZM7.74075 9.48487V9.3075L7.85737 9.31238H7.95862C7.97887 9.31763 7.99912 9.32775 8.00925 9.34275C8.02462 9.35287 8.0295 9.37313 8.0295 9.4035C8.0295 9.41887 8.02425 9.444 8.01412 9.45413C8.004 9.46425 7.98862 9.47962 7.97362 9.47962C7.95825 9.48975 7.91287 9.48975 7.84162 9.48975H7.74037L7.74075 9.48487ZM8.76 9.93637C8.79712 9.92737 8.832 9.91012 8.86125 9.88575C8.89687 9.85538 8.92725 9.81488 8.9475 9.76388C8.96437 9.71475 8.973 9.66337 8.973 9.61163C8.97825 9.54562 8.973 9.48975 8.95762 9.44438C8.94675 9.39975 8.92612 9.35813 8.89687 9.3225C8.86987 9.29025 8.835 9.26587 8.79562 9.25163C8.76525 9.2415 8.7195 9.23625 8.66362 9.23625L8.4 9.22125L8.36437 9.93112L8.63325 9.9465C8.68387 9.9465 8.72962 9.9465 8.76 9.93637ZM8.53687 9.348H8.60287C8.64225 9.3495 8.68125 9.35475 8.7195 9.36337C8.74237 9.36975 8.76337 9.38212 8.78025 9.399C8.79975 9.41887 8.81362 9.44325 8.82075 9.46988C8.826 9.50025 8.826 9.54075 8.826 9.59662C8.826 9.6525 8.81587 9.69788 8.80575 9.72863C8.79562 9.759 8.78025 9.77925 8.76525 9.79462C8.74987 9.81 8.72962 9.82013 8.7045 9.82013H8.51175L8.53687 9.348ZM12.081 10.2607L12.1672 10.2863C12.2332 10.3016 12.2839 10.3117 12.3195 10.3117C12.3784 10.3117 12.4339 10.2859 12.4717 10.2409C12.4972 10.2154 12.5122 10.1801 12.5224 10.1396C12.5325 10.0837 12.5325 10.0384 12.5122 9.9975C12.4969 9.95175 12.4665 9.92138 12.4312 9.90112L12.2689 9.8505L12.0457 9.79988L11.8785 10.4895L12.0206 10.5251L12.081 10.2607ZM12.1522 9.95138H12.1575L12.2235 9.96675L12.3199 9.99225C12.3416 10.0013 12.3596 10.0174 12.3705 10.038C12.3806 10.0582 12.3806 10.0785 12.3806 10.104C12.3724 10.1441 12.3397 10.1745 12.2996 10.1801C12.2794 10.1854 12.2389 10.1749 12.1882 10.1648L12.1121 10.1445L12.1522 9.95138ZM12.7706 10.4535L12.7961 10.4636C12.8317 10.4738 12.852 10.4839 12.8621 10.4992C12.8752 10.5101 12.8857 10.524 12.8925 10.5398C12.9067 10.5795 12.9187 10.62 12.9281 10.6616L12.9787 10.8442L13.1359 10.9001L13.1055 10.743L13.065 10.6061C13.0549 10.5758 13.0346 10.5503 13.0144 10.5251C13.0751 10.5352 13.1257 10.53 13.1666 10.5097C13.2071 10.4843 13.2375 10.449 13.2577 10.3984C13.2679 10.3579 13.263 10.3222 13.2577 10.2817C13.2529 10.2413 13.2322 10.2157 13.2071 10.1906C13.1767 10.1704 13.131 10.1449 13.0549 10.1198L12.7759 10.0185L12.5377 10.6879L12.6697 10.7385L12.7706 10.4535ZM12.867 10.1798L12.9682 10.2154L13.0695 10.251C13.0882 10.2607 13.1025 10.2769 13.11 10.2968C13.1201 10.317 13.1201 10.3373 13.11 10.3575C13.1047 10.3778 13.0946 10.3931 13.0796 10.4032C13.0642 10.4186 13.0492 10.4186 13.0339 10.4186C13.0136 10.4186 12.9731 10.4085 12.9071 10.383L12.8107 10.3474H12.8062L12.867 10.1798ZM13.5922 11.1128C13.6886 11.1431 13.7797 11.1383 13.8559 11.0925C13.9414 11.0422 14.0032 10.9601 14.0284 10.8645C14.0587 10.7531 14.0587 10.6567 14.0182 10.5754C13.9744 10.4917 13.8971 10.4306 13.8052 10.4081C13.7494 10.3875 13.6987 10.3875 13.6477 10.3875C13.6174 10.3928 13.5817 10.4029 13.5465 10.4231C13.5116 10.443 13.4809 10.4685 13.4554 10.4992C13.416 10.5469 13.3867 10.602 13.3691 10.6616C13.3346 10.7539 13.3384 10.8559 13.3792 10.9455C13.4235 11.0287 13.5007 11.0895 13.5922 11.1128ZM13.5109 10.7021C13.5364 10.6211 13.5716 10.5701 13.6222 10.5398C13.6684 10.5128 13.7239 10.5071 13.7745 10.5244C13.8247 10.5398 13.8656 10.5772 13.8859 10.6256C13.9114 10.6762 13.9114 10.737 13.8859 10.8131C13.8604 10.8941 13.83 10.95 13.7794 10.9755C13.7287 11.0059 13.6781 11.0111 13.6271 10.9958C13.5712 10.9755 13.536 10.9451 13.5105 10.8945C13.4857 10.8439 13.4906 10.7779 13.5109 10.7021ZM14.88 11.7161L15.0169 11.4525L15.0424 11.4679L15.1031 11.5035C15.1162 11.5177 15.1249 11.5354 15.1286 11.5541C15.1365 11.5961 15.1414 11.6385 15.144 11.6809L15.1642 11.8684L15.3165 11.9445L15.3064 11.7821C15.3011 11.7161 15.2962 11.6708 15.2861 11.64C15.276 11.6145 15.2659 11.5841 15.2456 11.5538C15.3015 11.574 15.3521 11.574 15.4027 11.5639C15.4485 11.5444 15.4845 11.508 15.504 11.4626C15.5242 11.427 15.5242 11.3918 15.5242 11.3512C15.5242 11.3108 15.5089 11.2804 15.4837 11.2549C15.4436 11.2155 15.3975 11.1829 15.3469 11.1585L15.078 11.0216L14.7536 11.6505L14.88 11.7161ZM15.1489 11.1889L15.2501 11.2395C15.2812 11.2552 15.3116 11.2721 15.3412 11.2901C15.3615 11.3055 15.3716 11.3258 15.3769 11.3407C15.3821 11.361 15.3769 11.3812 15.3667 11.4015C15.3566 11.4218 15.3465 11.4371 15.3311 11.442C15.3157 11.4521 15.2955 11.4521 15.2805 11.4521C15.2651 11.4521 15.2246 11.4319 15.1639 11.4015L15.0675 11.3509L15.1489 11.1889ZM17.3089 13.2221C17.3261 13.3144 17.3812 13.3954 17.4611 13.4452C17.5369 13.5007 17.6329 13.521 17.7247 13.5011C17.82 13.4779 17.9021 13.4175 17.9527 13.3339C18.0135 13.2375 18.039 13.1411 18.0236 13.0549C18.0064 12.9626 17.9512 12.8816 17.8714 12.8317C17.8256 12.8014 17.7802 12.7811 17.7292 12.771C17.6925 12.7635 17.6546 12.7635 17.6179 12.771C17.5781 12.7793 17.5406 12.7946 17.5065 12.8168C17.4559 12.8516 17.4124 12.8966 17.3797 12.9487C17.319 13.0395 17.2935 13.1306 17.3089 13.2221ZM17.5016 13.0294C17.5522 12.9585 17.6029 12.918 17.6539 12.9075C17.7045 12.8921 17.7604 12.8974 17.8061 12.933C17.8519 12.9686 17.8822 13.014 17.8871 13.065C17.8972 13.1156 17.877 13.1764 17.8312 13.2476C17.7855 13.3185 17.7349 13.3541 17.6842 13.3695C17.6336 13.3849 17.583 13.3744 17.532 13.3391C17.4881 13.3106 17.4585 13.2641 17.451 13.2124C17.4409 13.1565 17.4562 13.0957 17.5069 13.0297L17.5016 13.0294ZM11.0771 10.2L11.1937 9.70312L11.559 9.78938L11.5436 9.87037L11.2747 9.80963L11.2492 9.921L11.4979 9.97688L11.4776 10.0631L11.229 10.0024L11.1986 10.1392L11.4776 10.2052L11.4574 10.2863L11.0771 10.2Z" fill="#249338"/>
</g>
<rect x="0.5" y="0.5" width="23" height="23" rx="11.5" stroke="white"/>
<defs>
<clipPath id="clip0_439_16129">
<rect width="24" height="24" rx="12" fill="white"/>
</clipPath>
</defs>
</svg>
