<svg width="24" height="24" viewBox="0 0 24 24" fill="none" xmlns="http://www.w3.org/2000/svg">
<rect x="0.5" y="0.5" width="23" height="23" rx="11.5" stroke="white"/>
<path d="M12.0001 1C8.9245 1 6.147 2.26555 4.15105 4.3H19.8497C17.8532 2.26555 15.0757 1 12.0001 1ZM19.8491 19.7H4.15105C6.147 21.7345 8.9245 23 12.0001 23C15.0757 23 17.8532 21.7345 19.8491 19.7Z" fill="#0E5FA5"/>
<path d="M22.2937 15.8498H1.70607C2.25002 17.3029 3.08382 18.613 4.15027 19.6998H19.8489C20.9154 18.613 21.7497 17.3029 22.2937 15.8498ZM19.8489 4.2998H4.15082C3.08437 5.3866 2.25057 6.6967 1.70662 8.1498H22.2937C21.7497 6.6967 20.9154 5.3866 19.8489 4.2998Z" fill="white"/>
<path d="M23 11.9999C23 10.6431 22.7426 9.35 22.2938 8.1499H1.7062C1.2574 9.35 1 10.6431 1 11.9999C1 13.3568 1.2574 14.6498 1.7062 15.8499H22.2933C22.7426 14.6498 23 13.3568 23 11.9999Z" fill="#F44F5A"/>
</svg>
