<svg width="40" height="40" viewBox="0 0 40 40" fill="none" xmlns="http://www.w3.org/2000/svg">
<path d="M37.5 21.6728C37.5 23.4631 36.7888 25.1799 35.523 26.4458C34.2571 27.7117 32.5402 28.4228 30.75 28.4228H9.75C7.95979 28.4228 6.2429 27.7117 4.97703 26.4458C3.71116 25.1799 3 23.4631 3 21.6728M31.48 28.3858C27.323 19.5688 29.863 10.3458 24.494 12.2528C23.1594 12.8904 21.7226 13.2868 20.25 13.4238C18.777 13.2869 17.3399 12.8905 16.005 12.2528C10.635 10.3458 13.176 19.5688 9.018 28.3858M23.343 12.6638C21.582 13.2728 20.628 16.3068 17.998 17.7008" stroke="#008A83" stroke-width="1.5" stroke-linecap="round" stroke-linejoin="round"/>
</svg>
