<svg width="40" height="40" viewBox="0 0 40 40" fill="none" xmlns="http://www.w3.org/2000/svg">
<path d="M34.5037 19.9629C33.4337 20.6402 32.1919 20.9963 30.9257 20.9888C29.4509 20.9054 28.0252 20.4294 26.7961 19.6101C25.567 18.7908 24.5791 17.658 23.9347 16.3288M4.85766 23.9888H19.5207M5.45366 8.98885H28.3237M20.2687 16.4888H3.00666M29.8987 11.9888C28.7509 8.94748 26.573 6.40481 23.7442 4.80329C20.9153 3.20178 17.6144 2.6428 14.416 3.22362C11.2175 3.80444 8.32397 5.4883 6.2388 7.98218C4.15363 10.4761 3.00884 13.6221 3.00366 16.8728C2.83566 24.1768 8.47766 30.3038 15.7707 30.7388C8.54066 21.0998 8.52666 10.8769 15.7267 3.03485M18.0647 3.03885C20.7568 5.93271 22.5039 9.57768 23.0737 13.4888M19.5037 37.4888C19.4571 36.2945 19.6581 35.1034 20.0939 33.9904C20.5297 32.8774 21.191 31.8666 22.0362 31.0214C22.8814 30.1762 23.8922 29.5149 25.0052 29.0791C26.1182 28.6433 27.3093 28.4423 28.5037 28.4888C29.6981 28.4422 30.8892 28.643 32.0023 29.0788C33.1153 29.5145 34.1263 30.1758 34.9715 31.021C35.8167 31.8663 36.478 32.8772 36.9137 33.9902C37.3495 35.1033 37.5503 36.2944 37.5037 37.4888H19.5037ZM28.5067 26.2388C30.098 26.2388 31.6241 25.6067 32.7493 24.4815C33.8745 23.3563 34.5067 21.8301 34.5067 20.2388C34.5067 18.6476 33.8745 17.1214 32.7493 15.9962C31.6241 14.871 30.098 14.2388 28.5067 14.2388C26.9154 14.2388 25.3892 14.871 24.264 15.9962C23.1388 17.1214 22.5067 18.6476 22.5067 20.2388C22.5067 21.8301 23.1388 23.3563 24.264 24.4815C25.3892 25.6067 26.9154 26.2388 28.5067 26.2388Z" stroke="#008A83" stroke-width="1.5" stroke-linecap="round" stroke-linejoin="round"/>
</svg>
