<svg width="40" height="40" viewBox="0 0 40 40" fill="none" xmlns="http://www.w3.org/2000/svg">
<path d="M24 24H33M24 28.5H33M24 33H27.375M15 18.107C13.51 17.8933 11.9914 18.0022 10.5471 18.4263C9.1028 18.8505 7.76649 19.58 6.62863 20.5655C5.49077 21.5509 4.57792 22.7694 3.95188 24.1383C3.32584 25.5073 3.00122 26.9947 3 28.5H15M8.007 6.138C8.99417 7.16199 10.1777 7.97642 11.4868 8.5326C12.7959 9.08877 14.2037 9.37529 15.626 9.375C17.0668 9.37624 18.4927 9.0829 19.816 8.513M20.5 37.5H36.5C36.7652 37.5 37.0196 37.3946 37.2071 37.2071C37.3946 37.0196 37.5 36.7652 37.5 36.5V20.5C37.5 20.2348 37.3946 19.9804 37.2071 19.7929C37.0196 19.6054 36.7652 19.5 36.5 19.5H20.5C20.2348 19.5 19.9804 19.6054 19.7929 19.7929C19.6054 19.9804 19.5 20.2348 19.5 20.5V36.5C19.5 36.7652 19.6054 37.0196 19.7929 37.2071C19.9804 37.3946 20.2348 37.5 20.5 37.5ZM13.5 15.75C15.1908 15.75 16.8123 15.0784 18.0078 13.8828C19.2034 12.6873 19.875 11.0658 19.875 9.375C19.875 7.68424 19.2034 6.06274 18.0078 4.86719C16.8123 3.67165 15.1908 3 13.5 3C11.8092 3 10.1877 3.67165 8.99219 4.86719C7.79665 6.06274 7.125 7.68424 7.125 9.375C7.125 11.0658 7.79665 12.6873 8.99219 13.8828C10.1877 15.0784 11.8092 15.75 13.5 15.75Z" stroke="#008A83" stroke-width="1.5" stroke-linecap="round" stroke-linejoin="round"/>
</svg>
