<svg width="24" height="24" viewBox="0 0 24 24" fill="none" xmlns="http://www.w3.org/2000/svg">
<g clip-path="url(#clip0_439_16131)">
<path d="M17.6891 1.43262V22.5676C21.4462 20.5404 24 16.5687 24 12.0001C24 7.43149 21.4462 3.45987 17.6891 1.43262Z" fill="#D32043"/>
<path d="M12 0C10.1595 0 8.41612 0.4155 6.85762 1.15612V22.8435C8.41612 23.5845 10.1595 24 12 24C14.0587 24 15.996 23.481 17.6891 22.5675V1.4325C15.996 0.519 14.0587 0 12 0Z" fill="white"/>
<path d="M0 12.0001C0 16.787 2.8035 20.918 6.85763 22.844V1.15625C2.8035 3.08225 0 7.21325 0 12.0001Z" fill="#088256"/>
<path d="M12.273 16.0981C10.0132 16.0981 8.17537 14.2598 8.17537 12.0001H8.61187C8.61187 14.0191 10.2544 15.6616 12.2734 15.6616C14.2924 15.6616 15.9349 14.0191 15.9349 12.0001H16.3714C16.371 14.2595 14.5327 16.0981 12.273 16.0981ZM11.5552 14.2433C11.5376 13.9021 11.1675 13.7236 10.776 13.5342C10.5112 13.4063 10.2109 13.2612 10.0912 13.0906C9.99224 12.9496 10.2844 12.5885 10.4775 12.3496C10.6999 12.0743 10.8919 11.8366 10.8746 11.6037C10.86 11.4061 10.7554 11.2197 10.5799 11.0783C10.3215 10.8702 9.93524 10.7795 9.54412 10.8338L9.60487 11.2658C9.87862 11.228 10.14 11.2842 10.3057 11.4177C10.3627 11.4635 10.4317 11.5385 10.4389 11.6318C10.4329 11.7095 10.2551 11.9292 10.1377 12.0747C9.82949 12.4561 9.44587 12.9308 9.73387 13.3407C9.91874 13.604 10.2577 13.7682 10.5859 13.9265C10.7576 14.0093 11.115 14.1818 11.1191 14.2651L11.5552 14.2433Z" fill="#006847"/>
<path d="M11.7146 15.8725C11.7146 15.4825 12.0307 15.166 12.4211 15.166C12.8111 15.166 13.1276 15.4821 13.1276 15.8725C13.1276 16.2625 12.8115 16.579 12.4211 16.579C12.0311 16.579 11.7146 16.2629 11.7146 15.8725ZM8.52899 13.8651C8.91899 13.8651 9.23549 13.549 9.23549 13.1586C9.23549 12.7686 8.91937 12.4521 8.52899 12.4521C8.13862 12.4521 7.82249 12.7686 7.82249 13.1586C7.82249 13.5486 8.13899 13.8651 8.52899 13.8651ZM9.23549 15.0471C9.23549 14.6571 9.55162 14.3406 9.94199 14.3406C10.332 14.3406 10.6485 14.6568 10.6485 15.0471C10.6485 15.4371 10.3324 15.7536 9.94199 15.7536C9.55162 15.7533 9.23549 15.4371 9.23549 15.0471ZM16.7572 13.1586C16.7572 12.7686 16.4411 12.4521 16.0507 12.4521C15.6604 12.4521 15.3442 12.7683 15.3442 13.1586C15.3442 13.5486 15.6604 13.8651 16.0507 13.8651C16.4411 13.8651 16.7572 13.5486 16.7572 13.1586ZM14.6381 15.7533C14.2481 15.7533 13.9316 15.4371 13.9316 15.0468C13.9316 14.6568 14.2477 14.3403 14.6381 14.3403C15.0285 14.3403 15.3446 14.6564 15.3446 15.0468C15.3442 15.4371 15.0281 15.7533 14.6381 15.7533Z" fill="#EAC71C"/>
<path d="M10.6489 13.6385L11.0295 13.8309C11.0831 13.7825 11.6906 13.5361 11.6906 13.5361L12.1133 14.1654L12.7688 13.9411L13.1141 14.2021L14.2736 13.9539L12.8066 12.824C12.8066 12.824 12.5048 12.4438 12.618 12.3035C12.7313 12.1633 14.301 12.0103 14.6085 14.0671C14.8729 13.4289 15.9274 10.0918 11.7173 9.45014C11.3363 9.40589 12.0949 10.421 11.8466 10.5451C11.5984 10.6693 10.7509 9.25476 10.0703 10.5181C9.88125 10.8343 10.1179 11.3341 10.1179 11.3341C10.1179 11.3341 10.9211 10.475 10.8619 11.0251C10.8026 11.5753 10.3901 12.05 10.9136 12.8053C11.4371 13.5605 10.6489 13.6385 10.6489 13.6385Z" fill="#A34F61"/>
</g>
<rect x="0.5" y="0.5" width="23" height="23" rx="11.5" stroke="white"/>
<defs>
<clipPath id="clip0_439_16131">
<rect width="24" height="24" rx="12" fill="white"/>
</clipPath>
</defs>
</svg>
