<svg width="40" height="40" viewBox="0 0 40 40" fill="none" xmlns="http://www.w3.org/2000/svg">
<path d="M31 7.38599H32.5C32.8978 7.38599 33.2794 7.54403 33.5607 7.82533C33.842 8.10664 34 8.48817 34 8.88599V35.667C34 36.0648 33.842 36.4463 33.5607 36.7277C33.2794 37.009 32.8978 37.167 32.5 37.167H8.5C8.10218 37.167 7.72064 37.009 7.43934 36.7277C7.15804 36.4463 7 36.0648 7 35.667V8.88599C7 8.48817 7.15804 8.10664 7.43934 7.82533C7.72064 7.54403 8.10218 7.38599 8.5 7.38599H10M26.5 22.167C26.5 23.3537 26.1481 24.5137 25.4888 25.5004C24.8295 26.4871 23.8925 27.2561 22.7961 27.7103C21.6997 28.1644 20.4933 28.2832 19.3295 28.0517C18.1656 27.8202 17.0965 27.2487 16.2574 26.4096C15.4182 25.5705 14.8468 24.5014 14.6153 23.3375C14.3838 22.1736 14.5026 20.9672 14.9567 19.8709C15.4108 18.7745 16.1799 17.8375 17.1666 17.1782C18.1533 16.5189 19.3133 16.167 20.5 16.167M26.5 17.667L21.031 23.136C20.9613 23.2058 20.8786 23.2613 20.7875 23.2991C20.6963 23.3369 20.5987 23.3563 20.5 23.3563C20.4013 23.3563 20.3037 23.3369 20.2125 23.2991C20.1214 23.2613 20.0387 23.2058 19.969 23.136L18.25 21.417M23.5 5.66699C23.5 4.87134 23.1839 4.10828 22.6213 3.54567C22.0587 2.98306 21.2956 2.66699 20.5 2.66699C19.7044 2.66699 18.9413 2.98306 18.3787 3.54567C17.8161 4.10828 17.5 4.87134 17.5 5.66699H13.75C13.5511 5.66699 13.3603 5.74601 13.2197 5.88666C13.079 6.02731 13 6.21808 13 6.41699V9.41699C13 9.83099 13.336 10.167 13.75 10.167H27.25C27.4489 10.167 27.6397 10.088 27.7803 9.94732C27.921 9.80667 28 9.6159 28 9.41699V6.41699C28 6.21808 27.921 6.02731 27.7803 5.88666C27.6397 5.74601 27.4489 5.66699 27.25 5.66699H23.5Z" stroke="#008A83" stroke-width="1.5" stroke-linecap="round" stroke-linejoin="round"/>
</svg>
