<svg width="24" height="24" viewBox="0 0 24 24" fill="none" xmlns="http://www.w3.org/2000/svg">
<g clip-path="url(#clip0_439_16132)">
<path d="M12 24C18.6274 24 24 18.6274 24 12C24 5.37258 18.6274 0 12 0C5.37258 0 0 5.37258 0 12C0 18.6274 5.37258 24 12 24Z" fill="white"/>
<path d="M12 0C14.2151 0 16.2881 0.602625 18.0694 1.64925H10.3312V0.118125C10.8769 0.042 11.4334 0 12 0ZM10.3312 12.9416H23.9599C23.9839 12.6308 24 12.3173 24 12C24 11.6827 23.9839 11.3693 23.9599 11.0584H10.3312V12.9416ZM10.3312 5.41388H22.0297C21.5839 4.73625 21.0727 4.10512 20.5024 3.5325H10.3312V5.41388ZM10.3312 9.18075H23.6636C23.5069 8.52975 23.2991 7.89825 23.0407 7.29338H10.3312V9.18075ZM12 24C14.2151 24 16.2885 23.3974 18.0694 22.3507H5.93062C7.71149 23.3974 9.78487 24 12 24ZM0.959244 16.7066H23.0411C23.2987 16.1036 23.5057 15.4744 23.6625 14.8253H0.337494C0.494244 15.474 0.701619 16.1032 0.959244 16.7066ZM3.49762 20.4675H20.5024C21.0727 19.8949 21.5839 19.2638 22.0297 18.5861H1.97024C2.41612 19.2638 2.92724 19.8949 3.49762 20.4675Z" fill="#C64252"/>
<path d="M2.87137 4.21541C2.14762 5.06329 1.54087 6.01279 1.07362 7.03991L1.20225 7.44079H1.752L1.30762 7.76104L1.47487 8.28191L1.03537 7.95679L0.591 8.28191L0.602625 8.24591C0.274125 9.24379 0.070125 10.2987 0.01575 11.3929L0.012375 11.5287C0.006 11.6854 0 11.8422 0 12C0 12.3173 0.016125 12.6308 0.040125 12.9417H10.3312V11.0584V9.18079V7.29341V5.41391V3.53254V1.64929V0.118164C9.81412 0.190164 9.30825 0.295164 8.81437 0.430914L8.94937 0.850914H9.49912L9.05475 1.17116L9.22687 1.69691L8.7825 1.37179L8.33812 1.69204L8.51025 1.17116L8.06588 0.850914H8.61562L8.74387 0.451164C7.80487 0.715539 6.91312 1.09054 6.08287 1.56229L6.00375 1.60766C5.46225 1.92079 4.947 2.27404 4.46287 2.66516L4.29187 2.80541C3.81375 3.20666 3.36825 3.64541 2.958 4.11604M1.47487 10.92L1.03537 10.5949L0.591 10.9152L0.75825 10.3943L0.31875 10.074H0.863625L1.03575 9.55316L1.203 10.074H1.75275L1.30837 10.3943L1.47487 10.92ZM3.02812 12.234L2.58375 11.9142L2.13937 12.2344L2.3115 11.7087L1.86712 11.3884H2.412L2.58412 10.8724L2.75137 11.3933H3.30112L2.85675 11.7135L3.02812 12.234ZM2.856 9.08029L3.02812 9.59629L2.58375 9.27604L2.139 9.59629L2.31112 9.07541L1.86675 8.75516H2.41162L2.58375 8.23429L2.751 8.76004H3.30075L2.856 9.08029ZM2.856 6.44216L3.02812 6.96791L2.58375 6.64279L2.13937 6.96304L2.3115 6.44216L1.86712 6.12191H2.412L2.58412 5.60104L2.75137 6.12191H3.30112L2.856 6.44216ZM4.5765 10.92L4.13212 10.5949L3.69262 10.9152L3.85987 10.3943L3.4155 10.074H3.96975L4.13212 9.55316L4.30425 10.074H4.84912L4.40962 10.3943L4.5765 10.92ZM4.40925 7.76104L4.5765 8.28191L4.13212 7.95679L3.69262 8.28191L3.85987 7.75616L3.41512 7.43629H3.96937L4.13175 6.92029L4.30387 7.44116H4.84875L4.40925 7.76104ZM4.40925 5.12329L4.5765 5.64904L4.13212 5.32391L3.69262 5.64416L3.85987 5.12329L3.4155 4.80304H3.96975L4.13212 4.28216L4.30425 4.80304H4.84912L4.40925 5.12329ZM6.12487 12.234L5.6805 11.9138L5.241 12.234L5.40825 11.7083L4.96875 11.388H5.51362L5.68087 10.872L5.853 11.3929H6.39787L5.95837 11.7132L6.12487 12.234ZM5.95762 9.08029L6.12487 9.59629L5.6805 9.27604L5.241 9.59629L5.40825 9.07541L4.96875 8.75516H5.51362L5.68087 8.23429L5.853 8.76004H6.39787L5.95762 9.08029ZM5.95762 6.44216L6.12487 6.96791L5.6805 6.64279L5.241 6.96304L5.40825 6.44216L4.96875 6.12191H5.51362L5.68087 5.60104L5.853 6.12191H6.39787L5.95762 6.44216ZM5.95762 3.80891L6.12487 4.32979L5.6805 4.00466L5.241 4.32979L5.40825 3.80404L4.96875 3.48379H5.51362L5.68087 2.96291L5.853 3.48866H6.39787L5.95762 3.80891ZM7.67325 10.92L7.23375 10.5949L6.78937 10.9152L6.95662 10.3943L6.51712 10.074H7.062L7.23412 9.55316L7.40137 10.074H7.95112L7.50675 10.3943L7.67325 10.92ZM7.506 7.76104L7.67325 8.28191L7.23375 7.95679L6.78937 8.28191L6.95662 7.75616L6.51712 7.43591H7.062L7.23412 6.91991L7.40137 7.44079H7.95112L7.506 7.76104ZM7.506 5.12329L7.67325 5.64904L7.23375 5.32391L6.78937 5.64416L6.95662 5.12329L6.51712 4.80304H7.062L7.23412 4.28216L7.40137 4.80304H7.95112L7.506 5.12329ZM7.506 2.49004L7.67325 3.01091L7.23375 2.69066L6.78937 3.01091L6.95625 2.49004L6.51675 2.16979H7.06162L7.23375 1.64891L7.401 2.16979H7.95075L7.506 2.49004ZM9.22612 12.234L8.78175 11.9138L8.33737 12.234L8.5095 11.7083L8.06512 11.388H8.61487L8.78212 10.872L8.94937 11.3929H9.49912L9.05475 11.7132L9.22612 12.234ZM9.05437 9.08029L9.2265 9.59629L8.78212 9.27604L8.33775 9.59629L8.50987 9.07541L8.0655 8.75516H8.61525L8.7825 8.23429L8.94975 8.76004H9.4995L9.05437 9.08029ZM9.05437 6.44216L9.2265 6.96791L8.78212 6.64279L8.33775 6.96304L8.50987 6.44216L8.0655 6.12191H8.61525L8.7825 5.60104L8.94975 6.12191H9.4995L9.05437 6.44216ZM9.05437 3.80891L9.2265 4.32979L8.78212 4.00466L8.33775 4.32979L8.50987 3.80404L8.0655 3.48379H8.61525L8.7825 2.96291L8.94975 3.48866H9.4995L9.05437 3.80891Z" fill="#2B497A"/>
</g>
<rect x="0.5" y="0.5" width="23" height="23" rx="11.5" stroke="white"/>
<defs>
<clipPath id="clip0_439_16132">
<rect width="24" height="24" rx="12" fill="white"/>
</clipPath>
</defs>
</svg>
